<?xml version="1.0" encoding="utf-8"?>
<!DOCTYPE svg PUBLIC "-//W3C//DTD SVG 1.1//EN" "http://www.w3.org/Graphics/SVG/1.1/DTD/svg11.dtd">
<svg version="1.1" id="Layer_1" xmlns="http://www.w3.org/2000/svg" xmlns:xlink="http://www.w3.org/1999/xlink" x="0px" y="0px"
	 width="460px" height="160px" viewBox="0 0 460 160" style="enable-background:new 0 0 460 160;" xml:space="preserve">
<path d="M445.432,15.21c-16.01,4.919-70.069,49.572-70.498,49.682l-3.743,29.872c15.028,16.474,39.624,41.76,62.983,58.443
	C405.257,86.282,424.56,60.458,445.432,15.21z"/>
<path d="M118.64,12.364c-55.199-11.133-105.917,74.108-107.603,88.974c17.03,20.893,41.61,33.552,70.087,40.469l0.283-0.34
	c53.496-17.048,63.028-85.053,61.811-98.635S126.75,14,118.64,12.364z M91.813,87.689c-12.168,0-22.029-8.735-22.029-19.505
	c0-10.77,9.86-19.505,22.029-19.505c12.166,0,22.031,8.735,22.031,19.505C113.845,78.954,103.979,87.689,91.813,87.689z"/>
<polygon points="361,87.446 153.667,87.28 157.333,63.946 362,80.946 "/>
<path d="M195.348,90.1c0-32.79,9.377-62.493,24.558-84.089c-26.419,6.198-46.561,38.535-46.561,77.504
	c0,33.963,15.298,62.892,36.718,73.867C200.78,138.216,195.348,115.053,195.348,90.1z"/>
<path d="M235.563,88.69c0-27.289,7.804-52.009,20.438-69.982c-21.987,5.158-38.749,32.07-38.749,64.501
	c0,28.265,12.732,52.34,30.558,61.475C240.083,128.734,235.563,109.457,235.563,88.69z"/>
<path d="M275.782,87.247c0-21.655,6.193-41.271,16.218-55.534c-17.447,4.093-30.749,25.449-30.749,51.185
	c0,22.43,10.104,41.534,24.249,48.783C279.369,119.022,275.782,103.725,275.782,87.247z"/>
<path d="M316.001,85.803c0-16.021,4.582-30.534,11.999-41.085c-12.908,3.028-22.749,18.828-22.749,37.868
	c0,16.594,7.475,30.728,17.94,36.091C318.655,109.312,316.001,97.994,316.001,85.803z"/>
<path d="M343.221,84.359c0-10.388,2.971-19.796,7.779-26.637c-8.369,1.963-14.749,12.207-14.749,24.551
	c0,10.759,4.846,19.922,11.631,23.399C344.941,99.601,343.221,92.263,343.221,84.359z"/>
</svg>
