<?xml version="1.0" encoding="utf-8"?>
<!DOCTYPE svg PUBLIC "-//W3C//DTD SVG 1.1//EN" "http://www.w3.org/Graphics/SVG/1.1/DTD/svg11.dtd">
<svg version="1.1" id="Layer_1" xmlns="http://www.w3.org/2000/svg" xmlns:xlink="http://www.w3.org/1999/xlink" x="0px" y="0px"
	 width="360px" height="180px" viewBox="0 0 360 180" style="enable-background:new 0 0 360 180;" xml:space="preserve">
  <path d="m345.741791,74.186684c-8.448944,2.249565 -16.826111,4.8769 -25.814026,4.291183c-10.014191,0.8815 -19.892853,-2.975616 -29.761597,-4.919746c-9.544586,-2.040398 -19.297577,-6.557251 -28.85849,-3.465874c-58.440063,13.400246 -116.957001,26.573593 -175.348991,40.115623c-6.890083,2.837563 -14.474228,4.797348 -20.930214,8.183998c-6.512451,8.420021 -10.679913,18.719933 -18.305504,26.118767c-8.597507,5.280701 -18.684549,7.379501 -28.838409,7.797836c3.57151,3.467361 6.556631,8.050613 10.4744,10.859085c5.863529,0.770859 12.072132,4.129639 17.347271,0.488007c6.92495,-1.93721 12.581028,-6.01329 17.946079,-10.579941c4.909489,-3.477783 6.990627,-9.702347 10.088497,-14.728958c2.18441,-4.222321 3.246857,-9.75206 6.10775,-13.186142c39.616707,-9.78656 78.990646,-20.446434 119.070999,-28.565109c23.854828,-5.142273 47.946167,-9.338211 71.903381,-14.070793c10.12738,7.503273 21.818359,12.290283 33.063263,17.510933c7.562347,1.50145 15.12262,2.785217 22.657379,1.386215c4.721497,0.305679 8.708008,-1.333458 12.210938,-4.252167c3.820374,-2.728554 6.986237,-6.802361 9.558167,-10.59375c0.593872,-4.328911 2.52005,-9.012489 -2.165436,-11.935959l-0.405457,-0.453201l0,-0.000008z" fill="#00000088" />
  <path d="m315.546967,2.83978c9.462646,2.76254 20.93634,12.83115 22.318787,19.585589c1.377411,6.72991 0.2211,14.024502 -3.084595,19.45998c-2.232147,3.670242 -2.930389,5.828651 -2.458344,7.59948c0.36261,1.360302 4.017761,6.064102 8.122528,10.452862c8.054352,8.611656 11.372772,14.021103 12.501678,20.379288c1.075195,6.055779 -2.667786,13.817978 -9.059875,18.788452c-7.603149,5.91217 -14.601563,8.049957 -25.326385,7.736366c-12.686096,-0.37088 -24.976379,-4.696144 -40.703278,-14.324387l-7.670959,-4.696281l-21.203629,3.925407c-19.583801,3.625526 -28.524094,5.364456 -57.697754,11.22245c-30.717178,6.167953 -105.85331,24.369102 -108.328438,26.241737c-0.648842,0.490921 -1.81163,3.227783 -2.584023,6.081985c-4.385483,16.206085 -25.51664,34.727997 -41.151901,36.070526c-9.887379,0.848984 -18.440029,-4.176971 -24.44827,-14.36702c-2.35907,-4.001007 -2.832549,-6.07016 -3.3424,-14.606522c-0.43632,-7.305099 -0.17213,-11.630051 0.99529,-16.291817l1.5893,-6.346581l-3.18621,-4.059669c-13.78613,-17.565414 -11.22433,-35.648888 6.2695,-44.255508c3.21875,-1.583542 5.851851,-1.981476 11.630119,-1.757568c9.705362,0.376099 14.04355,1.747246 28.115339,8.886368l11.635799,5.903282l22.746284,-3.422951c12.510468,-1.882629 28.324966,-4.37307 35.143356,-5.534332c11.359444,-1.934654 19.055794,-3.335419 58.500511,-10.647331c7.361633,-1.364635 27.920059,-5.640377 45.685364,-9.501648c31.979813,-6.950779 32.333908,-7.056267 35.659927,-10.623508c1.960754,-2.102951 4.680206,-7.113892 6.531952,-12.035889c5.558197,-14.774031 12.917511,-24.289492 22.031982,-28.486971c4.853027,-2.23497 15.426239,-2.93539 20.768341,-1.37579zm-19.683472,7.89259c-7.823792,4.42511 -14.339508,14.298059 -19.452484,29.47542c-1.842438,5.46909 -6.166626,10.887421 -10.333313,12.947918c-3.44278,1.702522 -40.096481,10.030823 -57.793945,13.131683c-7.090424,1.242355 -13.164124,2.421059 -13.497101,2.619331c-1.066422,0.635025 -31.453644,6.380707 -51.933578,9.819717c-10.909943,1.832008 -21.843735,3.715576 -24.297302,4.185738c-9.225098,1.76767 -47.9561,7.494965 -50.193542,7.422279c-1.282249,-0.041695 -6.76088,-2.444786 -12.174717,-5.340317c-11.976871,-6.405701 -19.780361,-9.003624 -27.829821,-9.265068c-6.903912,-0.224243 -10.41855,1.169708 -15.01255,5.954178c-9.150391,9.529747 -7.22007,20.086639 6.50902,35.597717c4.843821,5.472519 5.414431,6.579453 5.52813,10.723946c0.15094,5.500931 -1.710051,6.246811 -1.95496,0.783554c-0.179689,-4.008255 -1.74439,-6.480377 -3.45392,-5.456947c-3.17581,1.90123 -3.86912,21.732964 -0.99448,28.446419c5.173861,12.083038 16.786562,16.11824 29.2675,10.169907c8.942402,-4.261887 19.045204,-14.041824 23.04026,-22.30394c1.809669,-3.742569 3.557289,-8.605804 3.883591,-10.80719c0.326309,-2.201385 1.110123,-4.398079 1.741821,-4.881546c1.689529,-1.29306 57.993385,-15.146828 92.265282,-22.702232c30.798065,-6.789566 82.852997,-17.038239 95.397568,-18.782036c6.839966,-0.950829 7.367615,-0.883331 10.97467,1.403946c7.866852,4.988525 24.130554,12.889229 30.050507,14.598183c23.865387,6.889351 46.301941,-5.911583 39.733429,-22.669418c-0.560974,-1.431259 -4.428406,-6.310852 -8.594269,-10.843559c-4.165863,-4.532703 -7.891998,-9.200684 -8.280273,-10.373302c-1.17865,-3.55938 -2.99823,-1.724628 -3.220673,3.247551c-0.218079,4.87392 -1.468781,6.104931 -2.632416,2.590908c-1.112793,-3.360477 1.193085,-13.23642 4.07077,-17.43504c4.522461,-6.598339 5.830963,-10.04565 5.72345,-15.07868c-0.160034,-7.49316 -3.946259,-12.055809 -14.440552,-17.401989c-7.018707,-3.57561 -15.532074,-3.48974 -22.0961,0.22287z" fill="#000000" />
</svg>
